<?xml version="1.0" encoding="UTF-8" standalone="no"?>
<!-- Created with Inkscape (http://www.inkscape.org/) -->

<svg
   width="189.27237mm"
   height="192.89767mm"
   viewBox="0 0 189.27237 192.89767"
   version="1.1"
   id="svg5"
   inkscape:version="1.1.1 (3bf5ae0d25, 2021-09-20)"
   sodipodi:docname="yoga.svg"
   xmlns:inkscape="http://www.inkscape.org/namespaces/inkscape"
   xmlns:sodipodi="http://sodipodi.sourceforge.net/DTD/sodipodi-0.dtd"
   xmlns="http://www.w3.org/2000/svg"
   xmlns:svg="http://www.w3.org/2000/svg">
  <sodipodi:namedview
     id="namedview7"
     pagecolor="#ffffff"
     bordercolor="#666666"
     borderopacity="1.0"
     inkscape:pageshadow="2"
     inkscape:pageopacity="0.0"
     inkscape:pagecheckerboard="0"
     inkscape:document-units="mm"
     showgrid="true"
     showborder="true"
     inkscape:snap-global="true"
     inkscape:snap-bbox="true"
     inkscape:snap-bbox-edge-midpoints="true"
     inkscape:snap-smooth-nodes="true"
     inkscape:snap-midpoints="true"
     inkscape:snap-intersection-paths="true"
     inkscape:object-paths="true"
     fit-margin-top="0"
     fit-margin-left="0"
     fit-margin-right="0"
     fit-margin-bottom="0"
     inkscape:zoom="0.46755363"
     inkscape:cx="221.36498"
     inkscape:cy="454.49332"
     inkscape:window-width="1366"
     inkscape:window-height="705"
     inkscape:window-x="-8"
     inkscape:window-y="-8"
     inkscape:window-maximized="1"
     inkscape:current-layer="layer1">
    <inkscape:grid
       type="axonomgrid"
       id="grid9"
       spacingy="50"
       enabled="false"
       originx="-295.20562"
       originy="59.447876" />
  </sodipodi:namedview>
  <defs
     id="defs2" />
  <g
     inkscape:label="Layer 1"
     inkscape:groupmode="layer"
     id="layer1"
     style="display:inline"
     transform="translate(-295.2056,59.447878)">
    <path
       id="path140959"
       style="opacity:1;fill:#aaccff;stroke-width:1.00157;stroke-linecap:round;stroke-linejoin:round"
       d="M 1.0898438 383.29688 C 16.281901 554.96419 191.39172 517.17204 380.52344 516.20508 C 577.35088 515.19879 715.35938 554.49797 715.35938 357.66797 L 715.28516 350.35352 C 713.66695 271.23424 612.03532 238.41343 567.29883 180.05664 C 538.94339 143.06821 517.04996 104.60495 492.16406 72.753906 A 345.59035 333.4314 0 0 1 492.27344 81.054688 A 345.59035 333.4314 0 0 1 491.30664 105.9707 A 345.59035 333.4314 0 0 1 488.41406 130.75 A 345.59035 333.4314 0 0 1 483.60938 155.25 A 345.59035 333.4314 0 0 1 476.91992 179.33398 A 345.59035 333.4314 0 0 1 468.38281 202.86914 A 345.59035 333.4314 0 0 1 458.04883 225.72461 A 345.59035 333.4314 0 0 1 445.97266 247.76953 A 345.59035 333.4314 0 0 1 432.22266 268.88281 A 345.59035 333.4314 0 0 1 416.87695 288.94531 A 345.59035 333.4314 0 0 1 400.01758 307.8457 A 345.59035 333.4314 0 0 1 381.74414 325.47656 A 345.59035 333.4314 0 0 1 362.1543 341.74023 A 345.59035 333.4314 0 0 1 341.36133 356.54883 A 345.59035 333.4314 0 0 1 319.47852 369.81445 A 345.59035 333.4314 0 0 1 296.62891 381.46484 A 345.59035 333.4314 0 0 1 272.94141 391.43555 A 345.59035 333.4314 0 0 1 248.54688 399.67188 A 345.59035 333.4314 0 0 1 223.58398 406.125 A 345.59035 333.4314 0 0 1 198.18945 410.76172 A 345.59035 333.4314 0 0 1 172.50781 413.55273 A 345.59035 333.4314 0 0 1 146.68359 414.48438 A 345.59035 333.4314 0 0 1 120.85742 413.55273 A 345.59035 333.4314 0 0 1 95.175781 410.76172 A 345.59035 333.4314 0 0 1 69.78125 406.125 A 345.59035 333.4314 0 0 1 44.818359 399.67188 A 345.59035 333.4314 0 0 1 20.423828 391.43555 A 345.59035 333.4314 0 0 1 1.0898438 383.29688 z "
       transform="matrix(0.26458333,0,0,0.26458333,295.2056,-59.447878)" />
    <path
       id="path189947"
       style="opacity:1;fill:#85b6ff;stroke-width:1.00157;stroke-linecap:round;stroke-linejoin:round;fill-opacity:1"
       d="M 1.0898438 383.29688 A 345.59035 333.4314 0 0 0 20.423828 391.43555 A 345.59035 333.4314 0 0 0 44.818359 399.67188 A 345.59035 333.4314 0 0 0 69.78125 406.125 A 345.59035 333.4314 0 0 0 95.175781 410.76172 A 345.59035 333.4314 0 0 0 120.85742 413.55273 A 345.59035 333.4314 0 0 0 146.68359 414.48438 A 345.59035 333.4314 0 0 0 172.50781 413.55273 A 345.59035 333.4314 0 0 0 198.18945 410.76172 A 345.59035 333.4314 0 0 0 223.58398 406.125 A 345.59035 333.4314 0 0 0 248.54688 399.67188 A 345.59035 333.4314 0 0 0 272.94141 391.43555 A 345.59035 333.4314 0 0 0 296.62891 381.46484 A 345.59035 333.4314 0 0 0 319.47852 369.81445 A 345.59035 333.4314 0 0 0 341.36133 356.54883 A 345.59035 333.4314 0 0 0 362.1543 341.74023 A 345.59035 333.4314 0 0 0 381.74414 325.47656 A 345.59035 333.4314 0 0 0 400.01758 307.8457 A 345.59035 333.4314 0 0 0 416.87695 288.94531 A 345.59035 333.4314 0 0 0 432.22266 268.88281 A 345.59035 333.4314 0 0 0 445.97266 247.76953 A 345.59035 333.4314 0 0 0 458.04883 225.72461 A 345.59035 333.4314 0 0 0 468.38281 202.86914 A 345.59035 333.4314 0 0 0 476.91992 179.33398 A 345.59035 333.4314 0 0 0 483.60938 155.25 A 345.59035 333.4314 0 0 0 488.41406 130.75 A 345.59035 333.4314 0 0 0 491.30664 105.9707 A 345.59035 333.4314 0 0 0 492.27344 81.054688 A 345.59035 333.4314 0 0 0 492.16406 72.753906 C 458.65699 29.868755 419.71681 -1.01039 352.18945 0.025390625 C 257.81125 1.4730291 215.81895 101.23771 152.80273 161.98438 C 84.411201 227.91275 -1.0376926 258.88885 0.009765625 361.32422 C 0.088454363 369.01964 0.47168293 376.31178 1.0898438 383.29688 z "
       transform="matrix(0.26458333,0,0,0.26458333,295.2056,-59.447878)" />
    <path
       style="fill:#37abc8;stroke:none;stroke-width:0.264583px;stroke-linecap:butt;stroke-linejoin:miter;stroke-opacity:1"
       d="m 383.09413,66.035831 c 0,0 5.26759,-4.213691 4.79624,-10.069452 -0.47139,-5.855763 -2.35125,-10.199436 -1.7353,-11.755321 0.61598,-1.555885 4.85603,-6.356329 6.48491,-7.061277 1.62888,-0.70495 5.57919,-4.525072 1.1721,-6.824891 -2.49349,-1.301216 -6.4121,-4.000365 -1.19091,-7.22046 5.18447,-3.197447 6.20239,-3.693599 6.08417,-6.35 -0.11819,-2.656401 -1.99427,-10.1181723 2.89375,-7.463175 4.88804,2.654998 8.8594,1.53755 6.38983,7.831521 -3.05646,7.78971 -9.47677,4.856483 -5.9845,10.164528 0.88275,1.341726 -0.19393,2.154645 3.85917,10.328231 4.05313,8.173585 -0.0919,10.392815 1.70749,17.053523 2.27808,8.432492 3.71449,14.057828 -3.35574,17.568691 -6.63951,3.296978 -18.75679,-1.036506 -18.75679,-1.036506 z"
       id="path145569"
       sodipodi:nodetypes="csssssssssssscc" />
    <path
       style="fill:#5fbcd3;stroke:none;stroke-width:0.264583px;stroke-linecap:butt;stroke-linejoin:miter;stroke-opacity:1"
       d="m 418.52861,68.323664 c 0,0 6.03182,-10.314501 13.12275,-12.180552 7.09096,-1.86605 21.96453,-9.334224 18.4592,-14.690587 -3.50533,-5.356362 -12.03768,-7.849724 -16.6534,-3.159982 -4.61572,4.689745 -9.40252,8.279315 -5.1252,-2.679174 4.27731,-10.958485 9.27158,-15.668875 5.5915,-18.057024 -3.6801,-2.388149 -15.68503,-8.3904834 -17.58904,3.917913 -1.90398,12.308396 1.15732,13.990622 -0.98318,21.504058 -2.14051,7.513439 -2.96682,7.928338 -6.85812,10.729399 -3.89132,2.801065 -1.62462,6.745579 1.47042,10.275194 3.09402,3.529619 2.67901,5.771261 2.67901,5.771261 z"
       id="path145487" />
    <path
       style="fill:#37abc8;stroke:none;stroke-width:0.264583px;stroke-linecap:butt;stroke-linejoin:miter;stroke-opacity:1"
       d="m 354.86514,61.477903 c 0,0 5.26759,-4.213691 4.79624,-10.069452 -0.47139,-5.855763 -2.35125,-10.199436 -1.7353,-11.755321 0.61598,-1.555885 4.85603,-6.356329 6.48491,-7.061277 1.62888,-0.70495 5.57919,-4.525072 1.1721,-6.824891 -2.49349,-1.301216 -6.4121,-4.000365 -1.19091,-7.22046 5.18447,-3.197447 6.20239,-3.693599 6.08417,-6.35 -0.11819,-2.6564018 -1.99427,-10.1181728 2.89375,-7.4631755 4.88804,2.6549976 8.8594,1.5375503 6.38983,7.8315215 -3.05646,7.78971 -9.19216,5.941395 -5.4343,11.064851 0.78644,1.072239 0.8031,-0.0028 3.30897,9.427908 2.3429,8.817379 2.61543,10.214034 1.70749,17.053523 -0.90792,6.83949 2.95399,13.677577 -3.35574,17.568691 -6.3097,3.891115 -18.75679,-1.036506 -18.75679,-1.036506 z"
       id="path144694"
       sodipodi:nodetypes="csssssssssssscc" />
    <path
       style="fill:#5fbcd3;stroke:none;stroke-width:0.264583px;stroke-linecap:butt;stroke-linejoin:miter;stroke-opacity:1"
       d="m 344.75023,68.143019 c 0,0 -3.55225,-10.314501 -10.19458,-12.180552 -6.64237,-1.86605 -19.72062,-9.334224 -14.92764,-14.690587 4.79298,-5.356362 13.92473,-7.849724 17.41305,-3.159982 3.48832,4.689745 7.4122,8.279315 5.76927,-2.679174 -1.64293,-10.958485 -5.50484,-15.668875 -1.25066,-18.057024 4.25421,-2.388149 17.70208,-8.3904832 16.64719,3.917913 -1.05492,12.308396 -4.52062,13.990622 -4.18632,21.504058 0.3343,7.513439 1.06087,7.928338 4.27881,10.729399 3.21795,2.801065 0.003,6.745579 -3.94054,10.275194 -3.94253,3.529619 -4.06641,5.771261 -4.06641,5.771261 z"
       id="path144541" />
    <path
       id="path140720"
       style="fill:#d7eef4;fill-opacity:1;stroke:none;stroke-width:0.999999px;stroke-linecap:butt;stroke-linejoin:miter;stroke-opacity:1"
       d="m 1336.3652,465.3125 c 38.4739,27.10389 76.6167,47.04761 121.709,35.92383 70.3614,-17.35737 68.2327,-55.71759 139.9356,-46.08985 71.7028,9.62775 -2.6487,4.90517 139.4824,13.37305 89.0089,5.30302 109.8917,-44.61393 71.832,-82.42969 -41.2416,-40.97721 -49.1926,-19.71344 -81.2168,-80.9707 -3.0411,-5.81713 -6.39,-11.4187 -10,-16.7832 a 615.52827,438.58275 0 0 1 -8.5136,8.79687 615.52827,438.58275 0 0 1 -27.2989,24.31836 615.52827,438.58275 0 0 1 -29.6523,22.87695 615.52827,438.58275 0 0 1 -31.8535,21.31836 615.52827,438.58275 0 0 1 -33.8985,19.65625 615.52827,438.58275 0 0 1 -35.7695,17.89258 615.52827,438.58275 0 0 1 -37.4629,16.03711 615.52827,438.58275 0 0 1 -38.9629,14.10352 615.52827,438.58275 0 0 1 -40.2715,12.09961 615.52827,438.58275 0 0 1 -41.373,10.03125 615.52827,438.58275 0 0 1 -42.2696,7.91406 615.52827,438.58275 0 0 1 -14.416,1.93164 z"
       transform="scale(0.26458333)" />
    <path
       id="path188017"
       style="fill:#bde3ed;fill-opacity:1;stroke:none;stroke-width:0.999999px;stroke-linecap:butt;stroke-linejoin:miter;stroke-opacity:1"
       d="m 1336.3652,465.3125 a 615.52827,438.58275 0 0 0 14.416,-1.93164 615.52827,438.58275 0 0 0 42.2696,-7.91406 615.52827,438.58275 0 0 0 41.373,-10.03125 615.52827,438.58275 0 0 0 40.2715,-12.09961 615.52827,438.58275 0 0 0 38.9629,-14.10352 615.52827,438.58275 0 0 0 37.4629,-16.03711 615.52827,438.58275 0 0 0 35.7695,-17.89258 615.52827,438.58275 0 0 0 33.8985,-19.65625 615.52827,438.58275 0 0 0 31.8535,-21.31836 615.52827,438.58275 0 0 0 29.6523,-22.87695 615.52827,438.58275 0 0 0 27.2989,-24.31836 615.52827,438.58275 0 0 0 8.5136,-8.79687 c -34.4049,-51.12629 -92.7258,-80.49207 -138.4433,-65.07227 -50.5146,17.03775 -73.3343,45.52091 -103.6973,31.09571 -30.363,-14.42521 -170.2344,-20.73829 -170.2344,-20.73829 -101.4267,15.64071 -168.0991,43.11777 -162.6699,98.65625 5.4291,55.53851 62.8474,41.71481 127.0293,84.91993 23.0498,15.51632 44.7134,32.92666 66.2734,48.11523 z"
       transform="scale(0.26458333)" />
    <path
       style="fill:none;stroke:#d7eef4;stroke-width:0.264583px;stroke-linecap:butt;stroke-linejoin:miter;stroke-opacity:1"
       d="m 420.5465,58.385786 c 0,0 -0.79571,-5.066631 4.90635,-8.167746 5.70204,-3.101112 12.00431,-3.501257 13.50486,-5.201867 1.50054,-1.700612 1.60057,-1.700612 1.60057,-1.700612"
       id="path150269" />
    <path
       style="fill:#da777a;fill-opacity:1;stroke:none;stroke-width:0.264583px;stroke-linecap:butt;stroke-linejoin:miter;stroke-opacity:1"
       d="m 419.73343,77.407936 c 0,0 -3.01469,-15.627728 -3.80844,-16.818353 -0.79375,-1.190625 -0.26074,-1.796968 -2.31872,-2.311464 -2.05799,-0.514493 -5.84653,-1.122532 -4.77076,-4.349811 1.07577,-3.227279 1.68381,-5.472342 1.73056,-5.986838 0.0468,-0.514493 -0.23386,-4.209494 -0.37417,-4.5369 -0.14031,-0.327404 0.98721,-1.033746 1.30963,-3.367596 0.32242,-2.333849 0.32242,-2.333849 0.32242,-2.333849 0,0 0.51946,-4.775521 1.54845,-5.19647 1.02899,-0.420949 2.57249,-0.935442 2.94667,1.309621 0.37417,2.245064 -2.33863,4.443357 -2.33863,4.443357 0,0 2.43216,4.817533 3.32084,6.220698 0.88865,1.403165 1.2034,2.549356 2.59246,5.459773 1.38907,2.910416 5.35782,11.310937 5.35782,11.310937 l 6.50232,12.13449 -5.84086,3.542072 z"
       id="path11867" />
    <ellipse
       style="opacity:1;fill:#241f1c;fill-opacity:1;stroke:none;stroke-width:3.96875;stroke-linecap:round;stroke-linejoin:round"
       id="path49134"
       cx="401.72617"
       cy="38.587036"
       rx="10.243104"
       ry="10.056016" />
    <path
       style="fill:#746fb5;fill-opacity:1;stroke:none;stroke-width:0.264583px;stroke-linecap:butt;stroke-linejoin:miter;stroke-opacity:1"
       d="m 388.40833,32.146875 c 0,0 2.84427,4.034895 2.3151,7.408333 -0.52916,3.373437 -4.01116,12.268353 -4.01116,12.268353 0,0 -7.36592,2.482167 -7.56436,1.886855 -0.19844,-0.595313 -1.05833,-10.120312 1.52136,-15.015104 2.57968,-4.894792 7.73906,-6.548437 7.73906,-6.548437 z"
       id="path24970" />
    <path
       style="fill:#d87275;fill-opacity:1;stroke:none;stroke-width:0.264583px;stroke-linecap:butt;stroke-linejoin:miter;stroke-opacity:1"
       d="m 395.50543,15.621904 c 2.43216,-1.683798 2.66602,-2.666014 2.66602,-2.666014 l 2.38538,2.291836 c 0,0 4.53692,3.461141 4.91109,4.022407 0.37417,0.561266 3.41437,3.367596 3.74176,3.46114 0.3274,0.09354 5.00462,0.327405 2.61925,-2.899874 -2.38538,-3.22728 -13.79779,-9.822155 -13.79779,-9.822155 z"
       id="path40236" />
    <path
       style="fill:#de8787;fill-opacity:1;stroke:none;stroke-width:0.264583px;stroke-linecap:butt;stroke-linejoin:miter;stroke-opacity:1"
       d="m 358.04739,99.020309 c 0,0 12.50156,2.513541 14.18828,2.844271 1.68672,0.33073 2.21589,0.23151 3.90261,0.79375 1.68672,0.56224 3.175,1.71979 4.96093,1.98438 1.78594,0.26458 3.77032,0.19843 3.6711,0.62838 -0.0992,0.42995 -0.29766,2.8112 -0.0331,2.97656 0.26459,0.16537 2.11667,1.19063 3.77032,0.95912 1.65364,-0.23151 2.44739,-0.79375 2.94349,-1.38906 0.49609,-0.59532 1.05833,-2.67891 0.42994,-3.63802 -0.62838,-0.95912 -0.99218,-1.85209 -2.3151,-2.94349 -1.32292,-1.09141 -1.85208,-1.88516 -1.91823,-2.579691 -0.0661,-0.694531 -0.28522,-1.403622 -0.37412,-2.305846 -0.0889,-0.902227 -0.4527,-3.151185 -0.4527,-3.151185 0,0 -2.05052,-2.844271 -6.35,-2.645833 -4.29948,0.198437 -13.52682,-2.94349 -14.02292,-3.241146 -0.49609,-0.297656 -3.80338,-0.396875 -5.55625,-0.363802 -1.75286,0.03307 -4.79557,11.410156 -4.79557,11.410156 z"
       id="path1484" />
    <path
       style="fill:#37abc8;stroke:none;stroke-width:0.264583px;stroke-linecap:butt;stroke-linejoin:miter;stroke-opacity:1"
       d="m 367.53569,77.548252 c 0,0 -15.50757,1.496018 -17.88882,2.289768 -2.38125,0.79375 -5.75469,1.389062 -7.01146,2.447396 -1.25677,1.058333 -2.51354,2.447395 -2.57969,4.894791 -0.0661,2.447396 0.0661,4.299479 2.31511,5.688542 2.24896,1.389062 4.43177,2.976562 4.43177,2.976562 0,0 1.5875,1.058334 5.42396,1.918229 3.83646,0.859896 5.82083,1.256771 5.82083,1.256771 0,0 -1.19062,-2.579687 0.66146,-6.085416 1.85208,-3.505729 3.83646,-5.159375 4.43177,-5.159375 0.59531,0 6.54844,3.704166 8.53281,4.299479 1.98438,0.595312 4.43177,2.711979 6.21771,2.315104 1.78594,-0.396875 2.41335,-2.108618 4.42455,-2.248935 2.0112,-0.140316 3.36759,-0.09354 3.92888,1.730571 0.56126,1.824114 1.02896,2.478924 1.02896,2.478924 0,0 0.7016,-1.028986 1.77737,-1.075759 1.07574,-0.04677 8.6996,3.461139 8.88669,3.507912 0.18708,0.04677 7.07801,2.856114 8.24731,2.996434 1.16933,0.14031 13.73562,2.61623 20.84497,1.86787 7.10939,-0.74835 11.41241,-0.60804 12.86235,-2.71278 1.44995,-2.104751 1.68381,-4.770764 1.02899,-7.202917 -0.65481,-2.432153 -2.43215,-7.810953 -3.36759,-9.401207 -0.93543,-1.590254 -5.79974,-10.944685 -5.79974,-10.944685 l -12.02045,4.022405 c 0,0 0.14031,1.870887 0.56126,3.507912 0.42096,1.637027 2.75956,7.062597 2.75956,7.062597 l -8.88672,-3.554683 -5.79975,-2.525699 -12.11397,-8.839938 -7.01583,-4.77076 c 0,0 -5.42557,8.418988 -5.51913,8.886711 -0.0935,0.46772 -16.18316,0.374176 -16.18316,0.374176 z"
       id="path1223"
       sodipodi:nodetypes="csssscscsssssscsssssssccscccccsc" />
    <path
       id="path119800"
       style="fill:#2f7bab;fill-opacity:1;stroke:none;stroke-width:0.999999px;stroke-linecap:butt;stroke-linejoin:miter;stroke-opacity:1"
       d="m 1450.5,330.03516 c 0,0 6.5122,17.94846 0.4922,18.08203 9.8487,0.76623 7.78,8.0348 12.7187,16.04297 0.069,0.0701 4.1013,-4.28289 6.7168,-4.06641 3.7966,0.31423 17.502,6.26367 17.502,6.26367 -25.9304,-14.10666 -27.3997,-22.99811 -31.3535,-28.47461 -3.9538,-5.4765 -6.0762,-7.84765 -6.0762,-7.84765 z"
       transform="scale(0.26458333)"
       sodipodi:nodetypes="cccscsc" />
    <path
       style="fill:none;stroke:#d7eef4;stroke-width:0.264583px;stroke-linecap:butt;stroke-linejoin:miter;stroke-opacity:1"
       d="m 367.91156,42.093419 c 0,0 0.92094,-7.681055 2.22142,-10.482061 1.30048,-2.801006 1.1004,-5.70205 0,-8.102912 -1.10041,-2.400863 3.13613,-7.099646 4.06897,-9.852087 0.93281,-2.752442 0.73276,-4.1529446 0.73276,-4.1529446"
       id="path154594" />
    <path
       style="fill:#746fb5;fill-opacity:1;stroke:none;stroke-width:0.264583px;stroke-linecap:butt;stroke-linejoin:miter;stroke-opacity:1"
       d="m 374.27087,31.337353 c -11.22531,10.383419 -13.00265,12.34785 -13.09621,15.621902 -0.0935,3.274052 1.30964,5.893295 1.40317,8.606078 0.0935,2.712786 1.30963,13.002665 2.24506,14.873549 0.93546,1.870887 2.7128,7.10937 2.7128,7.10937 0,0 4.39658,8.044812 4.95785,8.699624 0.56126,0.65481 6.26747,3.741772 9.82215,-0.280633 3.55468,-4.022407 6.17392,-10.102789 6.17392,-10.102789 0,0 3.08697,-6.73519 0.74837,-7.951268 -2.33862,-1.216076 -2.99341,0.467722 -2.89988,-5.519116 0.0935,-5.986838 0.37417,-10.570509 0.37417,-10.570509 0,0 -8.69961,0 -11.97367,-2.619243 -3.27406,-2.61924 -6.17392,-7.296456 -4.95784,-10.196332 1.21605,-2.899873 4.49011,-7.670633 4.49011,-7.670633 z"
       id="path903" />
    <path
       style="fill:#de8787;fill-opacity:1;stroke:none;stroke-width:0.264583px;stroke-linecap:butt;stroke-linejoin:miter;stroke-opacity:1"
       d="m 394.36145,15.544271 c 3.96875,0.23151 5.19245,1.25677 5.19245,1.25677 0,0 0.3638,-1.091406 1.02526,-1.389062 0.66146,-0.297656 1.32292,0.264583 1.42214,0.727604 0.0992,0.463021 0.23151,2.348177 1.35599,2.811198 1.12448,0.463021 2.64583,0.396875 2.81119,0.363802 0.16537,-0.03307 3.75626,2.102707 4.86322,3.402162 1.13138,1.328134 2.01331,6.936807 2.06008,7.123897 0.0468,0.187089 -20.53299,8.465762 -20.53299,8.465762 0,0 -2.89986,0.374179 -3.08697,0.09355 -0.18709,-0.280633 -3.55468,-10.476966 -3.1805,-11.272094 0.37417,-0.795126 8.07013,-11.583585 8.07013,-11.583585 z"
       id="path27622"
       sodipodi:nodetypes="scsssssscsscs" />
    <path
       style="fill:#37abc8;fill-opacity:1;stroke:#000000;stroke-width:0.264583px;stroke-linecap:butt;stroke-linejoin:miter;stroke-opacity:1"
       d="M 391.95076,76.706353 Z"
       id="path34916" />
    <path
       style="fill:none;stroke:#24221c;stroke-width:0.265;stroke-linecap:round;stroke-linejoin:miter;stroke-miterlimit:4;stroke-dasharray:none;stroke-opacity:1"
       d="m 395.5915,20.294604 c 0.63897,3.354374 1.11316,3.080787 1.11316,3.080787"
       id="path49293" />
    <path
       style="fill:#241f1c;fill-opacity:1;stroke:none;stroke-width:0.264583px;stroke-linecap:butt;stroke-linejoin:miter;stroke-opacity:1"
       d="m 411.11468,25.946697 c -3.13295,4.107784 -5.569,5.29502 -6.66456,5.667304 -1.09553,0.372285 -4.58348,0.191699 -4.58348,0.191699 0,0 1.62666,1.507966 1.60708,1.838116 -0.0196,0.330147 -3.6213,2.17706 -3.6213,2.17706 0,0 -2.50195,0.95803 -2.59427,-0.723887 -0.0923,-1.681916 -0.51951,-1.740416 -0.51951,-1.740416 l -5.1605,0.591456 c -11.86017,-0.706909 -0.37551,3.590108 -0.83604,5.20828 l 4.19097,0.169317 15.80357,-4.687353 c 0,0 3.02305,-2.033672 3.6608,-3.400568 0.63778,-1.366895 1.2996,-4.143748 0.94662,-5.006237 -0.353,-0.86249 -2.22938,-0.284771 -2.22938,-0.284771 z"
       id="path50097"
       sodipodi:nodetypes="cscscscccccssc" />
    <ellipse
       style="opacity:1;fill:#24221c;fill-opacity:1;stroke:none;stroke-width:3.96875;stroke-linecap:round;stroke-linejoin:round"
       id="path49383"
       cx="403.68066"
       cy="22.349199"
       rx="1.285669"
       ry="0.57084751" />
    <path
       style="fill:none;stroke:#000000;stroke-width:0.264583px;stroke-linecap:round;stroke-linejoin:miter;stroke-opacity:1"
       d="m 406.42624,21.159831 c 0.25533,1.607588 -0.43629,2.490782 -0.43629,2.490782"
       id="path49478"
       sodipodi:nodetypes="cc" />
    <path
       style="fill:#37abc8;fill-opacity:1;stroke:none;stroke-width:0.264583px;stroke-linecap:butt;stroke-linejoin:miter;stroke-opacity:1"
       d="m 411.08385,30.746621 c 0,0 -2.90316,0.684275 -4.49341,1.245541 -1.59025,0.561266 -5.75297,1.870887 -7.62386,2.666013 -1.8709,0.795129 -5.09815,2.245064 -6.54809,2.712786 -1.44995,0.467723 -1.04893,1.87248 -1.00505,2.165026 l 0.19287,1.285994 c 0,0 -0.002,0.952164 0.85895,0.431071 0.69891,-0.422796 3.8353,-0.795128 8.8867,-2.946648 5.0514,-2.151518 7.81095,-2.432151 8.98025,-2.572467 1.16932,-0.140317 1.77736,-0.608039 1.5435,-1.496711 -0.23387,-0.888672 -0.79186,-3.490605 -0.79186,-3.490605 z"
       id="path34848"
       sodipodi:nodetypes="csssscssssc" />
    <path
       style="fill:#dd8386;fill-opacity:1;stroke:none;stroke-width:0.264583px;stroke-linecap:butt;stroke-linejoin:miter;stroke-opacity:1"
       d="m 372.86406,32.940625 5.09323,-4.696355 c 0,0 6.61458,-14.816666 7.40833,-15.874999 0.79375,-1.058334 5.22552,-8.1359377 6.94531,-9.7895835 1.71979,-1.65364585 4.49792,-4.2994791 5.35781,-4.4979166 0.8599,-0.1984375 3.77032,1.78593744 4.23334,2.44739576 0.46302,0.66145834 8.00364,8.99583324 11.97239,16.47031234 3.96875,7.474479 5.75469,15.08125 5.75469,15.08125 0,0 -0.99219,4.034896 -2.3151,5.027083 -1.32292,0.992188 -3.83646,1.984375 -3.77032,1.058333 0.0661,-0.926041 -0.26458,-1.521354 0.46303,-1.984375 0.7276,-0.46302 1.5875,-0.859895 1.5875,-1.719791 0,-0.859896 -0.99219,-2.778125 -1.7198,-1.785938 -0.7276,0.992188 -0.7276,3.241146 -0.85989,3.638021 -0.13229,0.396875 -1.19063,1.389063 -1.19063,1.389063 0,0 -0.52916,-0.727605 -0.52916,-1.455209 0,-0.727604 -0.19844,-1.918229 -0.19844,-2.778125 0,-0.859896 0.13229,0.198438 0,-2.38125 -0.13229,-2.579687 0.66146,-3.241146 0.66146,-4.960937 0,-1.719792 -0.46302,-3.307292 -2.91042,-6.019271 -2.4474,-2.711979 -10.51719,-8.665104 -10.51719,-8.665104 0,0 -0.99218,1.719792 -2.44739,4.101042 -1.45521,2.38125 -3.24115,5.22552 -3.37344,7.474479 -0.13229,2.248958 -1.78594,7.14375 -2.71198,8.995833 -0.92604,1.852083 0.72761,4.233333 0.59531,6.019271 -0.13229,1.785937 -0.92604,5.357812 -2.57968,8.532812 -1.65365,3.175 -2.57969,4.431771 -2.71198,4.696354 -0.13229,0.264584 -0.99219,0.79375 -1.45521,0.859896 -0.46302,0.06615 -14.08906,-3.439583 -14.68438,-4.431771 -0.59531,-0.992187 -1.5875,-7.276041 -0.79375,-8.665104 0.79375,-1.389062 4.69636,-6.085416 4.69636,-6.085416 z"
       id="path971" />
    <path
       style="fill:#6253a2;fill-opacity:1;stroke:none;stroke-width:0.264583px;stroke-linecap:butt;stroke-linejoin:miter;stroke-opacity:1"
       d="m 386.54153,66.265583 c 0,0 -1.75962,3.134407 -2.31719,3.815659 l -1.1235,1.372728 c 0,0 2.84733,-0.943809 3.54266,-1.845353 0.9807,-1.271545 1.23619,-2.203053 1.23619,-2.203053 0.009,-0.0079 -0.64264,-0.111874 -0.96393,-0.422317 -0.32224,-0.311364 -0.37423,-0.717664 -0.37423,-0.717664 z"
       id="path53833"
       sodipodi:nodetypes="cscscsc" />
    <path
       style="fill:#6253a2;fill-opacity:1;stroke:none;stroke-width:0.264583px;stroke-linecap:butt;stroke-linejoin:miter;stroke-opacity:1"
       d="m 387.87969,67.405559 c 0,0 0.0822,1.617617 -0.0667,2.080638 -0.14883,0.463021 -0.19844,0.611849 -0.19844,0.611849 0,0 0.86251,-1.102341 0.77721,-1.835547 -0.0853,-0.733203 -0.10022,-0.737907 -0.10022,-0.737907 z"
       id="path58082" />
    <path
       style="fill:#ce4c62;fill-opacity:1;stroke:none;stroke-width:0.264583px;stroke-linecap:butt;stroke-linejoin:miter;stroke-opacity:1"
       d="m 416.22043,61.336903 c 0,0 1.72201,-4.319195 1.92045,-6.568154 0.19844,-2.248958 -0.26458,-2.943489 -0.26458,-2.943489 0,0 -1.4055,4.810498 -2.4474,5.754687 -1.0419,0.94419 -1.02719,0.950262 -1.02719,0.950262 0,0 0.5143,-0.02146 0.80489,0.598419 0.29059,0.619884 1.01383,2.208275 1.01383,2.208275 z"
       id="path60230" />
    <path
       style="fill:#d85d72;fill-opacity:1;stroke:none;stroke-width:0.264583px;stroke-linecap:butt;stroke-linejoin:miter;stroke-opacity:1"
       d="m 376.00215,94.128054 c 0,0 1.69055,3.205539 1.82285,4.528455 0.13229,1.322917 0.0992,1.322917 0.0992,1.322917 0,0 0.90721,-3.549542 0.72761,-4.663281 -0.1796,-1.11374 -0.10861,-1.145098 -0.10861,-1.145098 l -0.65207,0.219056 c 0,0 -0.72334,0.08863 -1.16697,-0.03688 -0.44363,-0.125513 -0.72202,-0.225166 -0.72202,-0.225166 z"
       id="path64923" />
    <path
       style="fill:#d56669;fill-opacity:1;stroke:none;stroke-width:0.264583px;stroke-linecap:butt;stroke-linejoin:miter;stroke-opacity:1"
       d="m 399.41756,12.255981 c 0.41936,0.299867 0.62753,-2.6451971 -0.0243,-4.107318 -0.52017,-1.1667934 -1.19533,-2.1745025 -1.19533,-2.1745025 l 0.13229,5.4690685 z"
       id="path71205"
       sodipodi:nodetypes="csccc" />
    <path
       style="fill:#2f7bab;fill-opacity:1;stroke:none;stroke-width:0.264583px;stroke-linecap:butt;stroke-linejoin:miter;stroke-opacity:1"
       d="m 423.05425,87.978445 c 0,0 2.3464,0.186152 4.14091,1.279019 1.79451,1.092867 1.66243,1.08557 1.66243,1.08557 0,0 -0.48579,-2.00984 -2.09225,-2.897984 -1.53265,-0.847342 -4.43468,-1.177126 -4.43468,-1.177126 z"
       id="path99207"
       sodipodi:nodetypes="cscscc" />
    <path
       style="fill:#2f7bab;fill-opacity:1;stroke:none;stroke-width:0.264583px;stroke-linecap:butt;stroke-linejoin:miter;stroke-opacity:1"
       d="m 422.57725,86.850839 c -0.10553,0.02724 1.50709,-1.131435 2.82945,-0.759784 0.15092,0.04242 0.85234,0.468693 0.85239,0.468695 0,0 -0.0937,-1.059157 -1.61149,-1.14303 -1.51778,-0.08387 -2.55633,0.274672 -2.55633,0.274672 z"
       id="path101939"
       sodipodi:nodetypes="cscscc" />
    <path
       style="fill:#2f7bab;fill-opacity:1;stroke:none;stroke-width:0.264583px;stroke-linecap:butt;stroke-linejoin:miter;stroke-opacity:1"
       d="m 363.14062,87.77552 c 0,0 -0.45461,-0.887667 -2.31256,-2.020896 -1.85796,-1.133229 -3.37072,-1.732102 -3.37072,-1.732102 0,0 2.57115,0.09524 3.89192,0.777189 1.32077,0.681953 2.77802,2.204419 3.01654,2.219309 0.23852,0.0149 0.36436,1.496481 0.36436,1.496481 z"
       id="path110799" />
    <path
       style="fill:#2f7bab;fill-opacity:1;stroke:none;stroke-width:0.264583px;stroke-linecap:butt;stroke-linejoin:miter;stroke-opacity:1"
       d="m 364.73008,88.515459 c -0.005,0.368449 0.0923,-0.181879 -0.36415,-1.496431 -0.45078,-1.298355 -1.04018,-1.820979 -1.04018,-1.820979 0,0 1.60351,0.72367 1.82666,1.878304 0.22315,1.154634 0.61446,2.006343 0.61446,2.006343 z"
       id="path117132"
       sodipodi:nodetypes="cscscc" />
    <path
       style="fill:#6253a2;fill-opacity:1;stroke:none;stroke-width:0.264583px;stroke-linecap:butt;stroke-linejoin:miter;stroke-opacity:1"
       d="m 362.23948,53.232655 c 0,0 1.36196,1.407172 2.32203,1.834974 0.96009,0.427802 1.87087,0.899726 1.87087,0.899726 0,0 -2.67684,-0.420651 -3.31179,-0.922915 -0.63497,-0.502267 -0.64135,-0.547024 -0.64135,-0.547024 z"
       id="path125195"
       sodipodi:nodetypes="cscscc" />
    <path
       style="fill:#d56669;fill-opacity:1;stroke:none;stroke-width:0.264583px;stroke-linecap:butt;stroke-linejoin:miter;stroke-opacity:1"
       d="m 378.69854,26.59023 c -0.0672,0.03964 0.16186,4.782777 1.12087,5.892517 1.64069,1.898568 1.86665,2.804571 1.96563,2.791616 0,0 -3.16926,-1.423703 -3.97454,-3.001998 -0.79769,-1.563442 -0.284,-3.67668 -0.14621,-3.757924 l 0.12663,-0.116765 c 0.33686,-0.433052 0.61613,-1.150395 0.90762,-1.807446 z"
       id="path133640"
       sodipodi:nodetypes="cscsccc" />
    <path
       style="fill:none;stroke:#000000;stroke-width:0.264583px;stroke-linecap:butt;stroke-linejoin:miter;stroke-opacity:1"
       d="M 374.20195,13.656359 Z"
       id="path136385" />
    <path
       style="fill:#2f7bab;fill-opacity:1;stroke:none;stroke-width:0.264583px;stroke-linecap:butt;stroke-linejoin:miter;stroke-opacity:1"
       d="m 411.1458,32.202392 c 0,0 -0.43291,0.635352 -1.48228,0.975535 -1.04933,0.340182 -2.69922,0.951661 -2.69922,0.951661 0,0 1.98437,-0.210622 3.05821,-0.43521 1.07384,-0.224587 1.07384,-0.224587 1.07384,-0.224587 l 0.0491,-1.278392 z"
       id="path137544" />
    <path
       style="fill:#241f1c;fill-opacity:1;stroke:none;stroke-width:0.264583px;stroke-linecap:butt;stroke-linejoin:miter;stroke-opacity:1"
       d="m 401.72616,48.643053 c 0,0 2.41903,2.275239 -1.88251,5.876533 -4.30155,3.601294 -5.85005,6.79324 -4.30155,10.203667 1.5485,3.410428 2.68952,4.6698 1.70061,6.502336 -0.9889,1.832536 -1.50204,3.097935 0.39939,5.900531 1.90143,2.802596 8.44592,6.341144 10.72568,4.771943 2.27976,-1.569204 6.95378,-6.372632 4.27477,-12.143893 -2.67901,-5.771261 -4.82386,-2.450418 -4.94766,-8.767765 -0.12382,-6.317348 2.3578,-9.279621 -0.55732,-10.976211 -3.21355,-1.870276 -6.5709,-2.210409 -5.41141,-1.367141 z"
       id="path145897"
       sodipodi:nodetypes="cssssssssc" />
    <path
       style="fill:none;stroke:#d7eef4;stroke-width:0.264583px;stroke-linecap:butt;stroke-linejoin:miter;stroke-opacity:1"
       d="m 349.92778,62.04736 c 0,0 0.19801,-2.325904 -2.10283,-4.826802 -2.30082,-2.500899 -9.8035,-6.20223 -14.20508,-10.803882 -4.40158,-4.601654 -4.00145,-3.70133 -4.00145,-3.70133"
       id="path150166" />
    <path
       style="fill:none;stroke:#d7eef4;stroke-width:0.264583px;stroke-linecap:butt;stroke-linejoin:miter;stroke-opacity:1"
       d="m 345.592,55.364713 c 0,0 4.13364,-11.248864 3.53343,-17.150985 -0.60021,-5.902119 -2.00073,-10.103628 -1.00036,-13.104707 1.00036,-3.001079 1.20044,-3.20115 1.20044,-3.20115"
       id="path150234" />
    <path
       style="fill:none;stroke:#d7eef4;stroke-width:0.264583px;stroke-linecap:butt;stroke-linejoin:miter;stroke-opacity:1"
       d="m 423.35595,51.67322 c 0,0 -3.90525,-2.855683 -1.30432,-15.860353 2.60094,-13.004673 2.30082,-9.103272 2.30082,-12.804601 0,-3.70133 0,-3.70133 0,-3.70133"
       id="path150304" />
    <path
       style="fill:none;stroke:#d7eef4;stroke-width:0.264583px;stroke-linecap:butt;stroke-linejoin:miter;stroke-opacity:1"
       d="m 394.48824,68.332304 c 0,0 -1.90293,-8.348099 -0.0638,-12.521528 1.83915,-4.173429 1.5562,-4.102692 1.98059,-4.668583 0.42442,-0.565888 0.12269,-3.890412 0.12269,-3.890412"
       id="path159975" />
    <circle
       style="opacity:1;fill:#d7eef4;fill-opacity:1;stroke:#d7eef4;stroke-width:2;stroke-linecap:round;stroke-linejoin:round;stroke-miterlimit:4;stroke-dasharray:none;stroke-opacity:1"
       id="path160981"
       cx="396.12213"
       cy="-46.402874"
       r="3.961221" />
    <ellipse
       style="opacity:1;fill:#d7eef4;fill-opacity:1;stroke:#d7eef4;stroke-width:2;stroke-linecap:round;stroke-linejoin:round;stroke-miterlimit:4;stroke-dasharray:none;stroke-opacity:1"
       id="path160983"
       cx="432.90488"
       cy="-1.6976662"
       rx="7.6394978"
       ry="7.0736094" />
    <ellipse
       style="opacity:1;fill:#d7eef4;fill-opacity:1;stroke:#d7eef4;stroke-width:2;stroke-linecap:round;stroke-linejoin:round;stroke-miterlimit:4;stroke-dasharray:none;stroke-opacity:1"
       id="path160985"
       cx="467.14114"
       cy="45.836987"
       rx="2.8294437"
       ry="3.1123879" />
    <ellipse
       style="opacity:1;fill:#d7eef4;fill-opacity:1;stroke:#d7eef4;stroke-width:2;stroke-linecap:round;stroke-linejoin:round;stroke-miterlimit:4;stroke-dasharray:none;stroke-opacity:1"
       id="path160987"
       cx="376.8819"
       cy="-9.3371649"
       rx="3.961221"
       ry="4.2441654" />
    <ellipse
       style="opacity:1;fill:#d7eef4;fill-opacity:1;stroke:#d7eef4;stroke-width:2;stroke-linecap:round;stroke-linejoin:round;stroke-miterlimit:4;stroke-dasharray:none;stroke-opacity:1"
       id="path160989"
       cx="325.9519"
       cy="17.825495"
       rx="6.5077205"
       ry="5.6588874" />
    <ellipse
       style="opacity:1;fill:#d7eef4;fill-opacity:1;stroke:#d7eef4;stroke-width:2;stroke-linecap:round;stroke-linejoin:round;stroke-miterlimit:4;stroke-dasharray:none;stroke-opacity:1"
       id="path160991"
       cx="318.02945"
       cy="56.588875"
       rx="4.2441654"
       ry="3.961221" />
    <ellipse
       style="opacity:1;fill:#d7eef4;fill-opacity:1;stroke:#d7eef4;stroke-width:2;stroke-linecap:round;stroke-linejoin:round;stroke-miterlimit:4;stroke-dasharray:none;stroke-opacity:1"
       id="path160997"
       cx="354.5293"
       cy="24.333214"
       rx="3.1123879"
       ry="2.5464993" />
    <ellipse
       style="opacity:1;fill:#d7eef4;fill-opacity:1;stroke:#d7eef4;stroke-width:2;stroke-linecap:round;stroke-linejoin:round;stroke-miterlimit:4;stroke-dasharray:none;stroke-opacity:1"
       id="path160999"
       cx="404.32751"
       cy="-5.8003583"
       rx="0.84883308"
       ry="0.70736092" />
    <ellipse
       style="opacity:1;fill:#d7eef4;fill-opacity:1;stroke:#d7eef4;stroke-width:3.5876;stroke-linecap:round;stroke-linejoin:round;stroke-miterlimit:4;stroke-dasharray:none;stroke-opacity:1"
       id="path161001"
       cx="431.49014"
       cy="28.577381"
       rx="1.4697528"
       ry="1.7526971" />
  </g>
</svg>
